<svg xmlns="http://www.w3.org/2000/svg" viewBox="0 0 500 500"><g id="freepik--Floor--inject-52"><ellipse id="freepik--floor--inject-52" cx="250" cy="365.24" rx="214.03" ry="127.32" style="fill:#f5f5f5"></ellipse></g><g id="freepik--Shadows--inject-52"><path id="freepik--Shadow--inject-52" d="M377.05,332.06c-15.08,8.71-15.08,22.82,0,31.53s39.52,8.7,54.6,0,15.08-22.82,0-31.53S392.13,323.36,377.05,332.06Z" style="fill:#e6e6e6"></path><path id="freepik--shadow--inject-52" d="M61.56,336.22c-13.47,7.78-13.47,20.4,0,28.18s35.34,7.78,48.81,0,13.48-20.4,0-28.18S75,328.44,61.56,336.22Z" style="fill:#e6e6e6"></path><path id="freepik--shadow--inject-52" d="M286.19,476.12l76.64-44.25c2.39-1.38,2.39-3.62,0-5L205,335.71a9.57,9.57,0,0,0-8.66,0L119.65,380c-2.4,1.38-2.4,3.62,0,5l157.88,91.16A9.57,9.57,0,0,0,286.19,476.12Z" style="fill:#e6e6e6"></path></g><g id="freepik--Window--inject-52"><g id="freepik--window--inject-52"><g id="freepik--window--inject-52"><g id="freepik--Frame--inject-52"><polygon points="460.41 220.53 457.92 221.39 380.75 176.83 383.24 175.97 460.41 220.53" style="fill:#fafafa"></polygon><polygon points="383.24 175.97 457.92 219.09 457.92 72.46 383.24 29.36 383.24 175.97" style="fill:#fff"></polygon><path d="M376.05,178.38l86.57,50V70.92l-86.57-50Zm4.7-150.47,77.17,44.55V221.39l-77.17-44.56Z" style="fill:#f0f0f0"></path><polygon points="380.75 176.83 383.24 175.97 383.24 29.36 380.75 27.91 380.75 176.83" style="fill:#e0e0e0"></polygon><polygon points="457.92 185.39 457.92 187.69 380.75 143.13 383.24 142.27 457.92 185.39" style="fill:#fafafa"></polygon><polygon points="457.92 99.62 457.92 101.92 380.75 57.36 383.24 56.51 457.92 99.62" style="fill:#fafafa"></polygon><polygon points="376.05 20.93 378.58 20.11 465.15 70.09 462.62 70.92 376.05 20.93" style="fill:#fafafa"></polygon><polygon points="465.15 70.09 462.62 70.92 462.62 228.36 465.15 227.53 465.15 70.09" style="fill:#e0e0e0"></polygon><polygon points="425.45 53.72 422.93 52.26 422.93 201.19 425.45 200.37 425.45 53.72" style="fill:#e0e0e0"></polygon></g><polygon points="418.23 49.55 422.93 52.26 422.93 201.19 418.23 198.47 418.23 49.55" style="fill:#f0f0f0"></polygon><polygon points="376.05 54.65 376.05 58.9 462.62 108.88 462.62 104.63 376.05 54.65" style="fill:#f0f0f0"></polygon><polygon points="376.05 140.41 376.05 144.66 462.62 194.64 462.62 190.39 376.05 140.41" style="fill:#f0f0f0"></polygon><polygon points="422.93 81.72 425.45 80.88 457.92 99.62 457.92 101.92 422.93 81.72" style="fill:#fafafa"></polygon><polygon points="422.93 167.46 425.45 166.63 457.92 185.37 457.92 187.66 422.93 167.46" style="fill:#fafafa"></polygon></g></g></g><g id="freepik--Pictures--inject-52"><g id="freepik--Picture--inject-52"><g id="freepik--frame--inject-52"><polygon points="97.96 179.38 99.99 180.59 141.53 156.61 139.5 155.4 97.96 179.38" style="fill:#fafafa"></polygon><polygon points="139.5 155.4 99.99 178.21 99.99 71.17 139.5 48.38 139.5 155.4" style="fill:#fff"></polygon><path d="M145.35,40.57,96.17,69V187.21l49.18-28.4Zm-3.82,116-41.54,24V71.17l41.54-24Z" style="fill:#f0f0f0"></path><polygon points="141.53 156.61 139.5 155.4 139.5 48.38 141.53 47.19 141.53 156.61" style="fill:#e0e0e0"></polygon><polygon points="145.35 40.57 143.29 39.4 94.11 67.79 96.17 68.97 145.35 40.57" style="fill:#fafafa"></polygon><polygon points="94.11 67.79 96.17 68.97 96.17 187.21 94.11 186.03 94.11 67.79" style="fill:#e0e0e0"></polygon></g><g id="freepik--Land--inject-52"><polygon points="136.54 153.03 102.95 172.43 102.95 74.74 136.54 55.35 136.54 153.03" style="fill:#f0f0f0"></polygon></g><g id="freepik--land--inject-52"><polygon points="136.54 153.03 102.95 172.43 102.95 74.74 136.54 55.35 136.54 153.03" style="fill:#f0f0f0"></polygon></g><path d="M103,139.85a30.77,30.77,0,0,0,4.8,0,60.73,60.73,0,0,0,16.36-3.55c4.07-1.5,8.13-3.45,12.43-3.57V153L132,155.66a15.35,15.35,0,0,0-6.23-3.46c-6.48-1.71-13.11,1.55-19.76,2.31a25.85,25.85,0,0,1-3,.15Z" style="fill:#fafafa"></path><path d="M103,115.53c7.52-2.22,15.23-4.08,20.59-9.59,4.32-4.44,6.36-10.6,7.78-16.63s2.4-12.27,5.13-17.83l.09-.16v44.92c-.42.63-.84,1.26-1.29,1.87-4.94,6.68-12.21,12.27-20.51,12.7-3.9.2-7.93-.71-11.79-.7Z" style="fill:#fafafa"></path><path d="M103,93.18a22.9,22.9,0,0,0,7.44-20.84c-.1-.56-.23-1.12-.38-1.67l12.92-7.46c-.05.85-.09,1.7-.11,2.54-.14,4.94,0,9.93-1.06,14.75a29,29,0,0,1-14.72,19,27.17,27.17,0,0,1-4.09,1.71Z" style="fill:#fafafa"></path></g><g id="freepik--picture--inject-52"><g id="freepik--frame--inject-52"><polygon points="37.4 160.1 39.43 161.31 80.96 137.32 78.94 136.12 37.4 160.1" style="fill:#fafafa"></polygon><polygon points="78.94 136.12 39.43 158.92 39.43 51.89 78.94 29.09 78.94 136.12" style="fill:#fff"></polygon><path d="M84.79,21.29,35.61,49.68V167.92l49.18-28.39ZM81,137.32l-41.53,24V51.89L81,27.91Z" style="fill:#f0f0f0"></path><polygon points="80.96 137.32 78.94 136.12 78.94 29.09 80.97 27.91 80.96 137.32" style="fill:#e0e0e0"></polygon><polygon points="84.79 21.29 82.73 20.11 33.55 48.51 35.61 49.68 84.79 21.29" style="fill:#fafafa"></polygon><polygon points="33.55 48.51 35.61 49.68 35.61 167.92 33.55 166.74 33.55 48.51" style="fill:#e0e0e0"></polygon></g><g id="freepik--land--inject-52"><polygon points="75.98 133.75 42.39 153.14 42.39 55.46 75.98 36.07 75.98 133.75" style="fill:#f0f0f0"></polygon></g><g id="freepik--land--inject-52"><polygon points="75.98 133.75 42.39 153.14 42.39 55.46 75.98 36.07 75.98 133.75" style="fill:#f0f0f0"></polygon></g><path d="M42.39,120.57a30.77,30.77,0,0,0,4.8,0A60.37,60.37,0,0,0,63.55,117c4.06-1.5,8.13-3.44,12.43-3.57v20.35l-4.55,2.63a15.34,15.34,0,0,0-6.24-3.47c-6.47-1.7-13.11,1.56-19.76,2.32a28,28,0,0,1-3,.15Z" style="fill:#fafafa"></path><path d="M42.39,96.24C49.91,94,57.61,92.17,63,86.66c4.32-4.45,6.36-10.6,7.78-16.64s2.4-12.26,5.13-17.83L76,52V97c-.42.62-.84,1.25-1.29,1.86-4.94,6.69-12.21,12.27-20.51,12.7-3.9.21-7.93-.71-11.79-.69Z" style="fill:#fafafa"></path><path d="M42.39,73.9a22.91,22.91,0,0,0,7.44-20.84c-.1-.56-.23-1.12-.38-1.68l12.92-7.46c0,.85-.09,1.7-.11,2.55-.14,4.93,0,9.93-1.06,14.74a29,29,0,0,1-14.72,19,28,28,0,0,1-4.09,1.7Z" style="fill:#fafafa"></path></g></g><g id="freepik--Plant--inject-52"><g id="freepik--plant--inject-52"><g id="freepik--Pot--inject-52"><g id="freepik--pot--inject-52"><path d="M65.75,353.11C54.93,342,48.58,296.52,59.13,287.67h53.68c10.55,8.85,4.2,54.26-6.61,65.43l-.3.3-.37.37a12,12,0,0,1-1,.88l-.25.21c-.27.21-.53.42-.82.62a16.68,16.68,0,0,1-1.4.91c-8.9,5.19-23.32,5.19-32.22,0h0a13.6,13.6,0,0,1-1.41-.92c-.27-.18-.51-.38-.76-.58l-.32-.25c-.33-.28-.65-.56-.94-.85l-.43-.42Z" style="fill:#37474f"></path><path d="M108.15,284.1c12.25,7.16,12.25,18.75,0,25.9S76,317.15,63.79,310s-12.25-18.74,0-25.89S95.9,277,108.15,284.1Z" style="fill:#455a64"></path><path d="M102.26,287.54c9,5.26,9,13.77,0,19s-23.58,5.25-32.58,0-9-13.76,0-19S93.26,282.29,102.26,287.54Z" style="fill:#263238"></path><path d="M69.68,296.57c9-5.25,23.58-5.25,32.58,0a15,15,0,0,1,5.39,5,15.1,15.1,0,0,1-5.39,5c-9,5.25-23.58,5.25-32.58,0a15,15,0,0,1-5.38-5A14.91,14.91,0,0,1,69.68,296.57Z" style="fill:#37474f"></path></g></g><g id="freepik--Plants--inject-52"><path d="M64.23,215.16,82.1,229.33l-17.28-8a48,48,0,0,0,3,16.38s8.51,5.07,13.46,9.54L68,242s-.91,8.73,2.72,22c1,3.49,4.87,10.15,7.35,15.13A57.22,57.22,0,0,0,82,285.86l.26.4q4.55-2.6,9.45-5c2.13-4.48,4.91-15.54,5.91-24.6,3.81-34.68-22.41-54.56-43.5-61.23C54.07,195.39,61.32,204.48,64.23,215.16Z" style="fill:#90CAF9"></path><path d="M64.23,215.16,82.1,229.33l-17.28-8a48,48,0,0,0,3,16.38s8.51,5.07,13.46,9.54L68,242s-.91,8.73,2.72,22c1,3.49,4.87,10.15,7.35,15.13A57.22,57.22,0,0,0,82,285.86l.26.4q4.55-2.6,9.45-5c2.13-4.48,4.91-15.54,5.91-24.6,3.81-34.68-22.41-54.56-43.5-61.23C54.07,195.39,61.32,204.48,64.23,215.16Z" style="fill:#fff;opacity:0.5"></path><path d="M79.18,216.61c3.64,3.67,5.78,8.5,7.42,13.33a70.54,70.54,0,0,1,3.17,15A65.06,65.06,0,0,1,86,275.06h0a.5.5,0,0,0,.94.36h0a65.83,65.83,0,0,0,3.35-30.53,71,71,0,0,0-3.44-15C85.11,225,82.89,220.22,79.18,216.61Z" style="fill:#fafafa"></path><path d="M141.59,233.35l0,0c-.45.53-7.79,9.26-18.68,26.24l-18.13,2.92,13.37,2.34L111,276.24,93.1,279.93,107,282.2s-3.87,13.6-13.85,19.27c-5.5,3.13-8.2,3.61-9.85,2-1.15-1.1-1.42-7.63-2.39-13.45s-1-15.29,4.45-26.71A35.31,35.31,0,0,1,91.12,255C104.32,240.25,129.26,233.17,141.59,233.35Z" style="fill:#90CAF9"></path><path d="M141.59,233.35l0,0c-.45.53-7.79,9.26-18.68,26.24l-18.13,2.92,13.37,2.34L111,276.24,93.1,279.93,107,282.2s-3.87,13.6-13.85,19.27c-5.5,3.13-8.2,3.61-9.85,2-1.15-1.1-1.42-7.63-2.39-13.45s-1-15.29,4.45-26.71A35.31,35.31,0,0,1,91.12,255C104.32,240.25,129.26,233.17,141.59,233.35Z" style="fill:#fff;opacity:0.65"></path><path d="M122.62,239.28c-9.38,4.11-18.25,9.76-25.22,17.42a49.37,49.37,0,0,0-8.64,12.83,46.91,46.91,0,0,0-4,14.9.05.05,0,0,0,0,.05s0,0,0,0A60.2,60.2,0,0,1,89.67,270,55.83,55.83,0,0,1,98,257.24c6.75-7.68,15.43-13.5,24.67-17.87a0,0,0,0,0,0-.06S122.65,239.27,122.62,239.28Z" style="fill:#fafafa"></path><path d="M33.55,240.83h0a39.4,39.4,0,0,1,4.56.21,73,73,0,0,1,17.46,4.25c2.08.78,4.17,1.66,6.23,2.64,1,.49,2.05,1,3,1.55a50.82,50.82,0,0,1,13.38,10.11,32.16,32.16,0,0,1,4.6,6.47c.16.3.34.6.49.91h0c.39.8.74,1.58,1.07,2.36a43.62,43.62,0,0,1,3.94,21.47c-.19,5.21-2,11.16-3,12.13a2.05,2.05,0,0,1-.45.34c-1.49,1-3.85.4-8.26-2.07-8.84-4.94-12.31-17.46-12.31-17.46l12.29-2.09L60.86,278.5l-6.41-10,11.79-2.15-16-2.46C40.5,249,34,241.32,33.57,240.86l0,0Z" style="fill:#90CAF9"></path><path d="M33.55,240.83h0a39.4,39.4,0,0,1,4.56.21,73,73,0,0,1,17.46,4.25c2.08.78,4.17,1.66,6.23,2.64,1,.49,2.05,1,3,1.55a50.82,50.82,0,0,1,13.38,10.11,32.16,32.16,0,0,1,4.6,6.47c.16.3.34.6.49.91h0c.39.8.74,1.58,1.07,2.36a43.62,43.62,0,0,1,3.94,21.47c-.19,5.21-2,11.16-3,12.13a2.05,2.05,0,0,1-.45.34c-1.49,1-3.85.4-8.26-2.07-8.84-4.94-12.31-17.46-12.31-17.46l12.29-2.09L60.86,278.5l-6.41-10,11.79-2.15-16-2.46C40.5,249,34,241.32,33.57,240.86l0,0Z" style="fill:#fff;opacity:0.65"></path><path d="M38.11,241a73,73,0,0,1,17.46,4.25c2.08.78,4.17,1.66,6.23,2.64,1,.49,2.05,1,3,1.55a50.82,50.82,0,0,1,13.38,10.11,32.16,32.16,0,0,1,4.6,6.47c.16.3.34.6.49.91h0c.39.8.74,1.58,1.07,2.36a43.62,43.62,0,0,1,3.94,21.47c-.19,5.21-2,11.16-3,12.13a2.05,2.05,0,0,1-.45.34,2.87,2.87,0,0,1-1,.36C85,295.56,81.05,275.1,75,266.69c-6.25-8.76-21.08-21.45-41.47-25.83l0,0A41.07,41.07,0,0,1,38.11,241Z" style="fill:#90CAF9;opacity:0.30000000000000004"></path><path d="M84,303.63a68.91,68.91,0,0,0-1.16-17.84,57.64,57.64,0,0,0-5.91-16.92c-3-5.27-7.37-9.57-12-13.38a66.73,66.73,0,0,0-15.37-9.22.06.06,0,0,0-.07,0,0,0,0,0,0,0,.06,88.46,88.46,0,0,1,14.78,9.9,65.18,65.18,0,0,1,6.49,6.05,39.15,39.15,0,0,1,5.43,7,57.08,57.08,0,0,1,6.12,16.62,69,69,0,0,1,1.55,17.74.05.05,0,0,0,.05.05A0,0,0,0,0,84,303.63Z" style="fill:#fafafa"></path></g></g></g><g id="freepik--Table--inject-52"><g id="freepik--table--inject-52"><g id="freepik--table--inject-52"><path d="M384.48,281.33a1.13,1.13,0,0,1,.66-.93,3.54,3.54,0,0,1,3.2,0,1.13,1.13,0,0,1,.67.93l-10.61,66.6h0a.8.8,0,0,1-.46.64,2.52,2.52,0,0,1-2.27,0,.82.82,0,0,1-.46-.64h0Z" style="fill:#455a64"></path><path d="M423.67,281.33a1.13,1.13,0,0,0-.67-.93,3.54,3.54,0,0,0-3.2,0,1.13,1.13,0,0,0-.66.93l10.61,66.6h0a.81.81,0,0,0,.47.64,2.5,2.5,0,0,0,2.26,0,.81.81,0,0,0,.47-.64h0Z" style="fill:#455a64"></path><path d="M406.61,283.66a1.13,1.13,0,0,0-.66-.93,3.54,3.54,0,0,0-3.2,0,1.13,1.13,0,0,0-.66.93l.66,75.62h0a.81.81,0,0,0,.47.64,2.5,2.5,0,0,0,2.26,0,.81.81,0,0,0,.47-.64h0Z" style="fill:#455a64"></path><path d="M444.92,264.38h0c0-6-3.92-12-11.85-16.56-15.84-9.15-41.52-9.15-57.37,0-7.92,4.57-11.85,10.56-11.84,16.56h0v3.22h0c.1,5.91,4.06,11.81,11.88,16.33,15.85,9.14,41.53,9.14,57.38,0,7.82-4.52,11.78-10.42,11.88-16.33h0Z" style="fill:#90CAF9"></path><path d="M444.92,264.38h0c0-6-3.92-12-11.85-16.56-15.84-9.15-41.52-9.15-57.37,0-7.92,4.57-11.85,10.56-11.84,16.56h0v3.22h0c.1,5.91,4.06,11.81,11.88,16.33,15.85,9.14,41.53,9.14,57.38,0,7.82-4.52,11.78-10.42,11.88-16.33h0Z" style="fill:#fff;opacity:0.6000000000000001"></path><path d="M375.66,247.82c-15.84,9.14-15.84,24,0,33.12s41.53,9.15,57.38,0,15.84-24,0-33.12S391.51,238.67,375.66,247.82Z" style="fill:#90CAF9"></path><g style="opacity:0.8"><path d="M375.66,247.82c-15.84,9.14-15.84,24,0,33.12s41.53,9.15,57.38,0,15.84-24,0-33.12S391.51,238.67,375.66,247.82Z" style="fill:#fff"></path></g></g><g id="freepik--pot--inject-52"><g style="opacity:0.2"><path d="M413.24,256.64c5.05,2.92,5.05,7.65,0,10.56s-13.25,2.92-18.31,0-5.05-7.64,0-10.56S408.18,253.72,413.24,256.64Z" style="fill:#90CAF9"></path></g><path d="M396,262.57c-4.4-4.49-7-15.7-2.7-19.26h21.85c4.29,3.56,1.7,14.77-2.69,19.26l-.12.12-.16.15a4.4,4.4,0,0,1-.39.35l-.11.09c-.11.08-.21.17-.33.25a6,6,0,0,1-.57.36,14.49,14.49,0,0,1-13.11,0h0q-.29-.17-.57-.36l-.31-.24-.13-.1c-.14-.11-.27-.23-.39-.34l-.17-.17Z" style="fill:#f0f0f0"></path><path d="M413.29,241.87c5,2.88,5,7.55,0,10.42s-13.07,2.88-18.05,0-5-7.54,0-10.42S408.3,239,413.29,241.87Z" style="fill:#fafafa"></path><path d="M409.75,243.91c3,1.75,3,4.59,0,6.34a12.14,12.14,0,0,1-11,0c-3-1.75-3-4.59,0-6.34A12.14,12.14,0,0,1,409.75,243.91Z" style="fill:#e0e0e0"></path><path d="M398.77,246.92a12.14,12.14,0,0,1,11,0,5,5,0,0,1,1.82,1.67,5,5,0,0,1-1.82,1.66,12.14,12.14,0,0,1-11,0,5,5,0,0,1-1.81-1.66A5,5,0,0,1,398.77,246.92Z" style="fill:#455a64"></path><path d="M409.09,248.59a25.28,25.28,0,0,0,4-5.28c1.83-3.25,3.4-7.37,2.45-7.9s-6,3.57-6,3.57a23.49,23.49,0,0,0,.41-5.53c-.16-2.89-.87-5.52-1.69-6s-2.68,3.12-3.47,5.76-1.12,4.28-1.12,4.28-.69-3-1.57-5.55c-1-2.74-1.84-3.36-2.52-3.09s-1.12,1.55-1.32,5.2a36.27,36.27,0,0,0,.16,5.23s-1.36-1.5-2.87-2.95c-1.66-1.59-2.83-1.59-3.3-1.29s-.15,2.57,2.42,7.21a26.16,26.16,0,0,0,4.85,6.39S403,250.88,409.09,248.59Z" style="fill:#90CAF9"></path><g style="opacity:0.2"><path d="M409.09,248.59a25.28,25.28,0,0,0,4-5.28c1.83-3.25,3.4-7.37,2.45-7.9s-6,3.57-6,3.57a23.49,23.49,0,0,0,.41-5.53c-.16-2.89-.87-5.52-1.69-6s-2.68,3.12-3.47,5.76-1.12,4.28-1.12,4.28-.69-3-1.57-5.55c-1-2.74-1.84-3.36-2.52-3.09s-1.12,1.55-1.32,5.2a36.27,36.27,0,0,0,.16,5.23s-1.36-1.5-2.87-2.95c-1.66-1.59-2.83-1.59-3.3-1.29s-.15,2.57,2.42,7.21a26.16,26.16,0,0,0,4.85,6.39S403,250.88,409.09,248.59Z"></path></g><path d="M404.72,233.16c-.8,2.64-1.12,4.28-1.12,4.28h0l.49,2.27s.49-5,1.2-8.17C405.07,232.09,404.87,232.64,404.72,233.16Z" style="opacity:0.2"></path><path d="M399.22,237.14a33.5,33.5,0,0,1-.7-6.33,27.72,27.72,0,0,0-.33,3.19,36.27,36.27,0,0,0,.16,5.23l3.51,3.68A31.61,31.61,0,0,1,399.22,237.14Z" style="opacity:0.2"></path><path d="M407.26,241.14l2.21-2.16h0a23.49,23.49,0,0,0,.41-5.53,21.89,21.89,0,0,0-.44-3.28,15.53,15.53,0,0,1-.26,5.31A51,51,0,0,1,407.26,241.14Z" style="opacity:0.2"></path></g></g></g><g id="freepik--Character--inject-52"><g id="freepik--character--inject-52"><g id="freepik--Leg--inject-52"><path d="M218.43,178.08c-2.58,12.34-1.94,16.35-.24,24.07.9,4,5,15.45,7.88,28.43,2.56,11.53,4,18.81,6,30.35a97.83,97.83,0,0,1,1.81,16c.19,5.66.75,13.33,2,29.48a242.17,242.17,0,0,0,3.52,27.19s-1.61,3.44-3.83,4.28-4.18,4.08-6.38,3.11S220,332.48,221.81,325a55.64,55.64,0,0,0-2.43-9.95c-3.49-10.59-12.64-27.42-8.13-40.7,0,0-17.15-29.86-19.91-35.69s-12-20.65-11.63-32.69S218.43,178.08,218.43,178.08Z" style="fill:#f28f8f"></path><path d="M264.22,356.16c.24,1.09.18,1.86-3.78,3.52s-10.07,2-15.3,1.08-10-5.17-12.33-8.21-6.94-5.75-9.94-7.13-3.64-2-3.47-2.93.84-3.52.84-3.52Z" style="fill:#ebebeb"></path><path d="M219.64,335a31.65,31.65,0,0,0,.65-7.68c-.14-2.48,1.52-2.33,1.52-2.33a18,18,0,0,0,.14,2.19c.2,1,1.67,1.05,2.18,1.77,1.14,1.6,1.2,2.77,2.64,3.17s1.55-2,3.13-2.13a2.51,2.51,0,0,1,1.63.71,4.09,4.09,0,0,1-.23-2c.36-1.56,4.21-2.07,6.92-2.72s1.61,1.37,2.74,3.91,7.37,10.87,9.85,13.41a81.29,81.29,0,0,0,7.05,5.09c3.43,2.14,4.63,2.78,5.62,3.33s1.36,2.78.92,4.14-7.82,5-16,3.7-10.69-4.58-13.73-8.65a22.27,22.27,0,0,0-8.85-7,18.22,18.22,0,0,1-5.85-3.53A10.79,10.79,0,0,1,219.64,335Z" style="fill:#90CAF9"></path><path d="M219.64,335a31.65,31.65,0,0,0,.65-7.68c-.14-2.48,1.52-2.33,1.52-2.33a18,18,0,0,0,.14,2.19c.2,1,1.67,1.05,2.18,1.77,1.14,1.6,1.2,2.77,2.64,3.17s1.55-2,3.13-2.13a2.51,2.51,0,0,1,1.63.71,4.09,4.09,0,0,1-.23-2c.36-1.56,4.21-2.07,6.92-2.72s1.61,1.37,2.74,3.91,7.37,10.87,9.85,13.41a81.29,81.29,0,0,0,7.05,5.09c3.43,2.14,4.63,2.78,5.62,3.33s1.36,2.78.92,4.14-7.82,5-16,3.7-10.69-4.58-13.73-8.65a22.27,22.27,0,0,0-8.85-7,18.22,18.22,0,0,1-5.85-3.53A10.79,10.79,0,0,1,219.64,335Z" style="opacity:0.2"></path><path d="M250.81,343.3c-2.48-2.54-8.73-10.87-9.85-13.41s0-4.56-2.74-3.91-6.56,1.17-6.92,2.72,1.18,5.09,4.42,9.36,9.3,8.43,9.3,8.43Z" style="opacity:0.2"></path><path d="M263,353.15c-1.44.45-3,.92-3,1.47s.11,3.6-.62,4.65a3.88,3.88,0,0,1-3.06,1.58c-1.38.21-7.36.57-10.91-.28a20.2,20.2,0,0,1-10.15-5.74c-3.27-3.31-3.93-5-8.13-7.4s-5.74-2.77-7.61-4.28a7.58,7.58,0,0,0-.25,1.29,5,5,0,0,0,1.92,1.39c1.34.59,5.94,2.53,7.8,3.95a54.24,54.24,0,0,1,5.86,5.88,20.72,20.72,0,0,0,10.58,5.74c4.62.84,10.91.66,14.93-1s4.18-2.5,4.5-3a9,9,0,0,0,0-4C264.54,352.73,264,352.83,263,353.15Z" style="fill:#263238"></path><path d="M243.67,345.35c2.82-2.18,5.29-3.05,6.43-2.83a2.36,2.36,0,0,1,1.14,1.12s-2.21,0-6.22,2.85C245,346.49,243.81,346.43,243.67,345.35Z" style="fill:#fafafa"></path><path d="M247.68,339.61c-2.12.13-4.73,1.2-7.78,3.2a1.51,1.51,0,0,1-1.27-1.14s4.07-3.32,8.1-3.28C246.73,338.39,247.7,338.83,247.68,339.61Z" style="fill:#fafafa"></path><path d="M244.6,335.53c-1.83-.55-6.83,2.16-8.27,3.64a1.27,1.27,0,0,1-1.28-1.29S239,334,243.5,334C243.5,334,244.77,334.47,244.6,335.53Z" style="fill:#fafafa"></path><path d="M241.94,331.65c-.9-.11-5.91.34-8.73,3.15a1.56,1.56,0,0,1-1-1.37,12.22,12.22,0,0,1,8.92-3.26A2.39,2.39,0,0,1,241.94,331.65Z" style="fill:#fafafa"></path><path d="M211.12,291.16a15.82,15.82,0,0,0,3.09,1.5l.93-10.06L217,293.8s10.67.23,17.7-3.87c-.31-4.51-.31-10.87-.31-15.67s-2.23-17.72-3.94-28.13S223,215,220.69,209s-4.45-19.16-2.26-30.88c0,0-8.32,2.92-21.68,10.37s-17.35,11.83-17.86,16.66,2.17,14.52,7.39,25.51,24.28,43.69,24.28,43.69A33.89,33.89,0,0,0,211.12,291.16Z" style="fill:#90CAF9"></path><path d="M211.12,291.16a15.82,15.82,0,0,0,3.09,1.5l.93-10.06L217,293.8s10.67.23,17.7-3.87c-.31-4.51-.31-10.87-.31-15.67s-2.23-17.72-3.94-28.13S223,215,220.69,209s-4.45-19.16-2.26-30.88c0,0-8.32,2.92-21.68,10.37s-17.35,11.83-17.86,16.66,2.17,14.52,7.39,25.51,24.28,43.69,24.28,43.69A33.89,33.89,0,0,0,211.12,291.16Z" style="opacity:0.2"></path><path d="M215.23,264.33c-1.43-6.06-16.06-46.69-24.59-60.19l-.82.52c8.48,13.43,23,53.86,24.46,59.89.64,2.71.58,5.64.49,10.08-.06,3.13-.14,7,0,11.92l.36-3.95.6,3.69c-.13-4.82-.06-8.57,0-11.64C215.83,270.14,215.89,267.16,215.23,264.33Z" style="opacity:0.2"></path><path d="M214.74,250c-2.55,3.66-8.44,9-11.49,11.63-6-10.43-13.88-24.51-17-31a88.45,88.45,0,0,1-6.76-18.76l17.37-8.17a32.05,32.05,0,0,0-9.48-9.48,12.7,12.7,0,0,0-2.64-1.2,8.24,8.24,0,0,1,3.2.81c5.18,2.21,11.59,8.31,11.59,8.31s9.23-5.43,13.67-12.68c-.83,4.22-7.94,12.83-11.16,15,4.8,8.11,12.26,20.22,14.51,27.36S218.26,244.92,214.74,250Z" style="opacity:0.2"></path></g><g id="freepik--Bike--inject-52"><path d="M209.91,333.75l-7.25-4.19a2,2,0,0,0-2-.15L192.76,334a2.73,2.73,0,0,0-1.06,2.48v6.69l13.38,7.72,7.89-4.57V339.6A7.33,7.33,0,0,0,209.91,333.75Z" style="fill:#37474f"></path><path d="M202,338.32l-7.24-4.19c-1.7-1-3.07.06-3.07,2.32v6.69l13.38,7.72v-6.69A7.32,7.32,0,0,0,202,338.32Z" style="fill:#263238"></path><path d="M201.56,338.88l-7-4.06a1.89,1.89,0,0,0-1.93-.14v0L130,370.82h0a2.6,2.6,0,0,0-1,2.39v2.06l13,7.49,62.61-36.15v-2.06A7.12,7.12,0,0,0,201.56,338.88Z" style="fill:#455a64"></path><path d="M142.8,372.49l-7.25-4.18a2,2,0,0,0-2-.16l-7.89,4.57a2.7,2.7,0,0,0-1.06,2.47v6.69L138,389.6l7.89-4.57v-6.68A7.35,7.35,0,0,0,142.8,372.49Z" style="fill:#37474f"></path><path d="M134.9,377.06l-7.24-4.18c-1.69-1-3.07.06-3.07,2.31v6.69L138,389.6v-6.68A7.33,7.33,0,0,0,134.9,377.06Z" style="fill:#263238"></path><path d="M313.41,434.17V439l-3.94,2.28v-4.83l-46-36.27A60,60,0,0,0,252.07,393L172.4,355.14l-6.56-3.8,3.3-1.91L256,390.66a61.05,61.05,0,0,1,11.44,7.23Z" style="fill:#455a64"></path><path d="M309.47,436.46v4.83l-46-36.28a61.7,61.7,0,0,0-11.44-7.23l-76.37-36.23v-.42a7.75,7.75,0,0,0-2.29-5.27,4.15,4.15,0,0,0-.78-.58l-.23-.14L252.08,393a60.67,60.67,0,0,1,11.44,7.23Z" style="fill:#37474f"></path><path d="M353.8,416.82l-7.25-4.18a1.93,1.93,0,0,0-2-.16L336.65,417a2.73,2.73,0,0,0-1.06,2.48v6.69L349,433.93l7.89-4.57v-6.69A7.35,7.35,0,0,0,353.8,416.82Z" style="fill:#37474f"></path><path d="M345.9,421.39l-7.24-4.19c-1.7-1-3.07.06-3.07,2.32v6.69L349,433.93v-6.69A7.34,7.34,0,0,0,345.9,421.39Z" style="fill:#263238"></path><path d="M345.45,422l-7-4.05a1.9,1.9,0,0,0-1.93-.15v0L273.86,453.9h0a2.62,2.62,0,0,0-1,2.39v2.06l13,7.49,62.61-36.15v-2.06A7.12,7.12,0,0,0,345.45,422Z" style="fill:#455a64"></path><path d="M286.69,455.56l-7.25-4.18a2,2,0,0,0-2-.16l-7.89,4.57a2.7,2.7,0,0,0-1.06,2.47V465l13.38,7.73,7.89-4.57v-6.69A7.35,7.35,0,0,0,286.69,455.56Z" style="fill:#37474f"></path><path d="M278.79,460.13,271.55,456c-1.7-1-3.07.06-3.07,2.32V465l13.38,7.73V466A7.33,7.33,0,0,0,278.79,460.13Z" style="fill:#263238"></path><path d="M267.76,291.22l5.74-.88h0a51.81,51.81,0,0,1,15,24.4L322,434.87l-7.13-4.12L282.79,315.63a51.81,51.81,0,0,0-15-24.4Z" style="fill:#263238"></path><path d="M322,434.87,288.53,314.75a51.91,51.91,0,0,0-15-24.4h0l-2.29-7.53,4.38,4A51.94,51.94,0,0,1,290.34,311l34.15,122.44Z" style="fill:#37474f"></path><path d="M276.11,296.36l-4.3-15.42c-14.34,4-25.4,7.32-36.51,14.15-9.25,5-18.26,12.11-28.93,23.78C194,332.39,180,348.63,175,356.37l14.54,6.9,4-2.28c5-7.74,9.66-13.74,22-27.26,10.41-11.38,19-18.8,27.83-24.2,8.58-4.67,17.6-7.72,28.8-10.88Z" style="fill:#263238"></path><path d="M271.81,280.94l-4,2.28c-12.58,3.55-22.63,6.5-32.4,11.78C246.51,288.24,257.53,285,271.81,280.94Z" style="fill:#455a64"></path><path d="M175,356.37l14.54,6.9c5-7.74,9.66-13.74,22-27.25,22-24.06,36-30.45,60.59-37.37l-4.3-15.43c-24.54,6.92-39.48,11.6-61.48,35.65C194,332.39,180,348.63,175,356.37Z" style="fill:#37474f"></path><polygon points="250.68 307.23 245.12 304.49 243.77 301.22 257.48 296.87 259.94 304.19 250.68 307.23" style="fill:#263238"></polygon><polygon points="245.12 304.49 258.6 300.2 259.95 304.19 250.68 307.23 245.12 304.49" style="opacity:0.2"></polygon><path d="M257.47,299.41c0,.55-.34.8-.75.57a1.81,1.81,0,0,1-.75-1.43c0-.55.34-.81.75-.57A1.81,1.81,0,0,1,257.47,299.41Z" style="fill:#455a64"></path><path d="M246.49,302.8c0,.55-.33.81-.75.57a1.8,1.8,0,0,1-.74-1.43c0-.55.33-.8.74-.56A1.76,1.76,0,0,1,246.49,302.8Z" style="fill:#455a64"></path><path d="M314.43,382.16c0-21-12.79-45.48-28.57-54.59-7.15-4.13-13.69-4.4-18.7-1.5l-7.93,4.57c-6,3.5-9.84,11.59-9.84,23.07,0,21,12.8,45.49,28.58,54.6,7.15,4.12,13.68,4.39,18.69,1.5l7.91-4.56C310.61,401.76,314.43,393.66,314.43,382.16Z" style="fill:#90CAF9"></path><path d="M314.43,382.16c0-21-12.79-45.48-28.57-54.59-7.15-4.13-13.69-4.4-18.7-1.5l-7.93,4.57c-6,3.5-9.84,11.59-9.84,23.07,0,21,12.8,45.49,28.58,54.6,7.15,4.12,13.68,4.39,18.69,1.5l7.91-4.56C310.61,401.76,314.43,393.66,314.43,382.16Z" style="fill:#fff;opacity:0.65"></path><ellipse cx="277.97" cy="370.21" rx="24.82" ry="43.87" transform="translate(-122.76 138.4) rotate(-23.05)" style="fill:#90CAF9"></ellipse><ellipse cx="277.97" cy="370.21" rx="24.82" ry="43.87" transform="translate(-122.76 138.4) rotate(-23.05)" style="fill:#fff;opacity:0.45"></ellipse><ellipse cx="277.97" cy="370.21" rx="19.34" ry="34.19" transform="translate(-122.76 138.4) rotate(-23.05)" style="fill:#263238"></ellipse><ellipse cx="277.97" cy="370.21" rx="11.53" ry="20.38" transform="translate(-122.76 138.4) rotate(-23.05)" style="fill:#90CAF9"></ellipse><path d="M283.25,390a11.19,11.19,0,0,1-5.53-1.65c-7.45-4.3-13.51-15.87-13.51-25.79,0-5.31,1.76-9.38,4.83-11.15,2.56-1.48,5.82-1.24,9.17.7,7.45,4.3,13.52,15.87,13.52,25.78,0,5.32-1.76,9.39-4.83,11.16A7.21,7.21,0,0,1,283.25,390Zm-10.56-38.57a6.27,6.27,0,0,0-3.17.82c-2.76,1.59-4.34,5.35-4.34,10.31,0,9.61,5.84,20.8,13,24.95,3,1.75,6,2,8.2.7,2.76-1.6,4.35-5.36,4.35-10.32,0-9.6-5.85-20.79-13-24.94A10.19,10.19,0,0,0,272.69,351.41Z" style="fill:#fafafa"></path><path d="M278,332.11a44.24,44.24,0,0,1,12.28,10.24,68.85,68.85,0,0,1,8.86,13.4,74.69,74.69,0,0,1,5.62,15.05l.85,3.92.62,4,.32,4,0,4-.28-4-.53-4-.75-3.91L304,371a79.34,79.34,0,0,0-5.77-14.81,72,72,0,0,0-8.57-13.35c-.79-1.07-1.71-2-2.6-3S285.2,338,284.25,337l-.72-.69-.76-.63-1.54-1.27a18.38,18.38,0,0,0-1.62-1.16Z" style="fill:#fff"></path><path d="M250.68,307.23C265.41,321,286.24,335,292.51,333.55l-2.65-9.31c-3.1,1.81-18.49-10.43-26.18-21.28Z" style="fill:#37474f"></path><path d="M292.51,333.55a2.11,2.11,0,0,0,.12-1.39l-3.36-11.82.59,3.9Z" style="fill:#263238"></path><path d="M274.49,296.87,263.68,303c7.69,10.85,23.08,23.09,26.18,21.28h0C289.65,317.17,284.65,310,274.49,296.87Z" style="fill:#455a64"></path><polygon points="218.17 372.7 196.75 266.68 190.23 265.81 186.27 268.09 207.25 371.68 214.21 374.98 218.17 372.7" style="fill:#263238"></polygon><polygon points="186.27 268.09 190.23 265.81 196.75 266.68 192.79 268.96 186.27 268.09" style="fill:#455a64"></polygon><polygon points="207.25 371.68 186.27 268.09 192.79 268.96 214.21 374.98 207.25 371.68" style="fill:#37474f"></polygon><polygon points="195.6 266.52 190.81 242.8 185.68 239.85 182.13 241.9 187.42 267.95 192.06 268.57 195.6 266.52" style="fill:#263238"></polygon><polygon points="187.26 244.85 182.13 241.9 187.42 267.95 192.06 268.57 187.26 244.85" style="fill:#37474f"></polygon><polygon points="190.81 242.8 185.68 239.85 182.13 241.9 183.77 249.95 188.89 252.91 192.44 250.87 190.81 242.8" style="opacity:0.2"></polygon><polygon points="205.78 243.5 175.59 226.06 167.7 230.62 167.7 235.48 197.88 252.91 205.78 248.35 205.78 243.5" style="fill:#263238"></polygon><polygon points="197.88 248.06 167.7 230.62 167.7 235.48 197.88 252.91 197.88 248.06" style="fill:#37474f"></polygon><polygon points="197.88 248.06 205.78 243.5 175.59 226.06 167.7 230.62 197.88 248.06" style="fill:#455a64"></polygon><polygon points="186.61 235.39 180.55 205.4 175.42 202.45 171.88 204.5 177.95 234.48 183.07 237.44 186.61 235.39" style="fill:#263238"></polygon><polygon points="177.01 207.45 171.88 204.5 177.95 234.48 183.07 237.44 177.01 207.45" style="fill:#37474f"></polygon><polygon points="180.55 205.4 175.42 202.45 171.88 204.5 173.51 212.56 178.63 215.52 182.18 213.47 180.55 205.4" style="opacity:0.2"></polygon><path d="M193.75,203c-2.24-4.28-7.75-10.67-7.75-10.67s-13.85-21.64-31.48-13a11.31,11.31,0,0,0-6.47,7.94,14.79,14.79,0,0,0-.38,3.67,9,9,0,0,0,1.74,5.3c2,3.24,8.15,6.21,15.58,8.65.53.18,1.07.34,1.6.51,2.66.81,5.34,1.52,8,2.26s5.31,1.47,7.91,2.36c1.07.37,2.13.76,3.15,1.22a13.28,13.28,0,0,1,1.25.63,7.11,7.11,0,0,0,1.42.64,3.37,3.37,0,0,0,1.34.14,5.36,5.36,0,0,0,1.06-.2,3.53,3.53,0,0,0,.87-.43,6.26,6.26,0,0,0,2.28-2.8A7.29,7.29,0,0,0,193.75,203Z" style="fill:#37474f"></path><path d="M154.52,179.26c-5.34,2.61-8.54,7.87-4.89,13.73,2,3.24,8.16,6.21,15.58,8.65s20.24,5.06,23.25,7.9,7.91-1.55,5.29-6.58c-2.24-4.28-7.75-10.67-7.75-10.67S172.15,170.65,154.52,179.26Z" style="fill:#455a64"></path><path d="M284.89,382l-8.34-29.94s-10.57-8.91-19.3-15.67-37.22-28.05-49.09-34.9c-4.77-2.75-9.12-2.93-12.46-1l-7.91,4.57c-4,2.32-6.59,7.73-6.59,15.4,0,14,8.54,30.34,19.06,36.42,13,7.5,29.75,13.09,42.1,17.81S277,386.6,277,386.6Z" style="fill:#455a64"></path><polygon points="268.65 356.66 276.55 352.1 284.89 382.04 277 386.6 268.65 356.66" style="fill:#263238"></polygon><path d="M268.65,356.66s-10.57-8.91-19.29-15.67-37.23-28.05-49.1-34.9c-10.52-6.08-19.06.37-19.06,14.4s8.54,30.34,19.06,36.42c13,7.5,29.75,13.09,42.1,17.81S277,386.6,277,386.6Z" style="fill:#37474f"></path><path d="M200.62,353.63c-9.12-5.21-16.83-19.55-16.81-31.69s7.4-17.6,16.45-12.37c11.26,6.5,37.22,26.08,46.86,34,7.32,6,15.47,13.43,19.3,16.75a5.74,5.74,0,0,1,1.59,2.65l4.7,16.86c.29,1-.11,1.84-.82,1.6-7.2-2.35-21.15-7-29.91-10.33-2.29-.88-4.72-1.78-7.28-2.73C223.56,364.21,210.94,359.54,200.62,353.63Z" style="fill:#455a64"></path><path d="M242.69,362.47a12.34,12.34,0,0,0-4.31-6.4c-4.87-3.78-14.25-11-20.63-15.54-1.48-1-3.26-2.29-5.21-3.63-9.84-6.77-24-16.13-24.25-16.32h0a18.42,18.42,0,0,0-.37,3.78c0,9.09,5.53,19.65,12.34,23.58l.32.18c13.2,7.52,43.26,18.4,43.26,18.4Z" style="fill:#90CAF9"></path><path d="M242.69,362.47a12.34,12.34,0,0,0-4.31-6.4c-4.87-3.78-14.25-11-20.63-15.54-1.48-1-3.26-2.29-5.21-3.63-9.84-6.77-24-16.13-24.25-16.32h0a18.42,18.42,0,0,0-.37,3.78c0,9.09,5.53,19.65,12.34,23.58l.32.18c13.2,7.52,43.26,18.4,43.26,18.4Z" style="fill:#fff;opacity:0.25"></path><ellipse cx="200.26" cy="331.5" rx="7.03" ry="12.43" transform="translate(-113.81 104.88) rotate(-23.05)" style="fill:#37474f"></ellipse><path d="M206,334.79c0,4.2-2.56,6.13-5.71,4.31s-5.7-6.7-5.7-10.9,2.55-6.13,5.7-4.31S206,330.59,206,334.79Z" style="fill:#263238"></path><path d="M202.79,333.9c0,2.56-1.56,3.73-3.47,2.63a8.31,8.31,0,0,1-3.47-6.63c0-2.56,1.55-3.73,3.47-2.63A8.34,8.34,0,0,1,202.79,333.9Z" style="fill:#37474f"></path><path d="M244.24,366.16l-.24-.08c-.3-.11-30.17-11-43.2-18.38l-.3-.17c-6.67-3.85-12.1-14.24-12.1-23.16,0-4.6,1.47-8.08,4-9.56,2.08-1.2,4.78-1,7.59.65,5.26,3,9.86,6.07,14.74,9.28l1.09.71a5.71,5.71,0,0,0,7-.57l1.89-1.74a2.88,2.88,0,0,1,.35-.26l7.85-4.53-.86-.62L224.64,322a3.31,3.31,0,0,0-.52.38l-1.9,1.75a4.76,4.76,0,0,1-5.84.47l-1.09-.72c-4.88-3.21-9.5-6.25-14.79-9.3-3.12-1.8-6.16-2-8.56-.65-2.86,1.65-4.51,5.44-4.51,10.4,0,9.23,5.65,20,12.59,24l.32.18c12.47,7.11,40.26,17.32,43.1,18.36l2.65,9.2,1.13.41Z" style="fill:#263238"></path><path d="M266.4,357.26c0,.74-.45,1.07-1,.76a2.39,2.39,0,0,1-1-1.91c0-.73.44-1.07,1-.75A2.39,2.39,0,0,1,266.4,357.26Z" style="fill:#455a64"></path><path d="M275.22,383.84c0,.73-.45,1.07-1,.75a2.38,2.38,0,0,1-1-1.9c0-.74.45-1.07,1-.75A2.38,2.38,0,0,1,275.22,383.84Z" style="fill:#455a64"></path><path d="M194.8,334.46l-.68.51q.4.87.87,1.68l.69-.52c.24-.18.24-.71,0-1.17S195,334.27,194.8,334.46Zm-1.64-7.89-1-.56c0,.27,0,.53,0,.81s0,.56,0,.84l1,.56c.34.2.62,0,.62-.47A1.5,1.5,0,0,0,193.16,326.57Zm7.1,13.57c-.34-.2-.62,0-.62.47v1.29c.21.14.41.27.62.39l.62.33v-1.3A1.5,1.5,0,0,0,200.26,340.14Zm4.58.11c-.24.19-.24.71,0,1.17l.69,1.31a4.6,4.6,0,0,0,.88-.66l-.69-1.31C205.48,340.3,205.09,340.07,204.84,340.25Zm3.49-4.92-1-.56c-.34-.2-.62,0-.62.47a1.47,1.47,0,0,0,.62,1.18l1,.56q0-.39,0-.81T208.33,335.33Z" style="fill:#263238"></path><path d="M201.23,333c0,1.41-.86,2.06-1.91,1.44a4.59,4.59,0,0,1-1.92-3.66c0-1.41.86-2.06,1.92-1.45A4.61,4.61,0,0,1,201.23,333Z" style="fill:#90CAF9"></path><path d="M258.46,287.74l.3,10.82a94.83,94.83,0,0,0,3.45,22.83l33.57,120.45,7.13,4.12,2.45-1.42L271,321.28a94.73,94.73,0,0,1-3.45-22.87h0l-3.36-11.54Z" style="fill:#455a64"></path><path d="M285.18,403.82c2,6.27,3.84,12.59,5.63,18.92.92,3.16,1.78,6.33,2.64,9.51s1.72,6.35,2.54,9.54l-.1-.14c2.36,1.41,4.69,2.86,7,4.31-2.42-1.29-4.84-2.59-7.24-3.93l-.07,0,0-.09c-.94-3.15-1.87-6.31-2.76-9.47s-1.8-6.33-2.66-9.51C288.41,416.58,286.73,410.22,285.18,403.82Z" style="fill:#37474f"></path><path d="M305.36,444.54,271,321.28a94.73,94.73,0,0,1-3.45-22.87l-3.36-11.54.3,10.78A94.74,94.74,0,0,0,268,320.53l35,125.43Z" style="fill:#37474f"></path><path d="M305.36,444.54q-5.19-18.17-10.29-36.36L284.85,371.8l-10.1-36.41-2.51-9.1c-.83-3-1.73-6.06-2.43-9.14a92.47,92.47,0,0,1-2.32-18.74v0l-3.29-11.56,3.43,11.52h0a98.08,98.08,0,0,0,2.46,18.68c.71,3.06,1.62,6.07,2.46,9.11l2.55,9.09,10.2,36.39,10.07,36.42Q300.43,426.3,305.36,444.54Z" style="fill:#263238"></path><path d="M193.86,336.5a1.44,1.44,0,0,1-1.21-.64l-19.74-29.63a1.46,1.46,0,0,1,2.43-1.62l19,28.49,3.74-2.16a1.46,1.46,0,1,1,1.46,2.52l-4.93,2.85A1.47,1.47,0,0,1,193.86,336.5Z" style="fill:#263238"></path><path d="M186,312.55l-17.55-17.92a2.05,2.05,0,0,0-2-.55l-17.74,4.56a2.05,2.05,0,0,0-1.46,1.42l-.27,1a2,2,0,0,0,.51,2L165.07,321a2,2,0,0,0,2,.55l17.73-4.58a2,2,0,0,0,1.45-1.42l.28-1A2,2,0,0,0,186,312.55Z" style="fill:#90CAF9"></path><path d="M186,312.55l-17.55-17.92a2.05,2.05,0,0,0-2-.55l-17.74,4.56a2.05,2.05,0,0,0-1.46,1.42l-.27,1a2,2,0,0,0,.51,2L165.07,321a2,2,0,0,0,2,.55l17.73-4.58a2,2,0,0,0,1.45-1.42l.28-1A2,2,0,0,0,186,312.55Z" style="opacity:0.2"></path><path d="M166,317.77a1.91,1.91,0,0,0,1.83.51l18.64-4.81a2.06,2.06,0,0,0-.52-.92l-6.75-6.89-10.8-11a2.05,2.05,0,0,0-2-.55l-2.15.55-15.59,4a2.09,2.09,0,0,0-.92.51Z" style="fill:#90CAF9"></path></g><g id="freepik--Body--inject-52"><g id="freepik--leg--inject-52"><path d="M173.31,161.1c-6.46,7.72-14.13,15.17-17.59,26.76s-.46,21.22,5.77,28.63a162.51,162.51,0,0,0,15.64,16.77c4,3.83,9.15,8.51,9.15,8.51s-5.94,2.85-10.43,11.24c-3.35,6.29-7.92,17.05-13.68,24.45L161,279.22s-5,8.76-3.55,10c1.61,1.39,6.68-2.59,9.68-2.33s10.66,4.53,10.66,4.53-2-6.07-.25-9.44c.74-1.38,3.93-4.57,5.64-6.16,6.33-5.89,17.66-16.39,25.15-23.44,8.21-7.72,7-13.77,4.85-20.33-1.82-5.53-16.13-26.81-17.75-28.76a52.76,52.76,0,0,0,6.69-3.76c5-3.24,8.36-6.24,11.29-11.06a54.16,54.16,0,0,0,5.07-10.38s-2.75,1.76-13.36-.41S177.46,169.29,173.31,161.1Z" style="fill:#ffa8a7"></path><path d="M176.41,251.12a12.36,12.36,0,0,0,2.6,5.34l6-5.77-4.33,7.7s3.57,5.47,6.71,7.55,6.75,0,6.75,0,8.77-8.13,12.57-11.4,8.26-8,8.39-14.38-2-10.21-5.56-16.82-12.68-19.65-12.68-19.65,8.6-4.56,13.74-10.77c4.78-5.79,6.12-10,7.79-14.84l-45.12-19.26s-2.78,3.25-8.45,10.09c-4.65,5.6-9.51,10.19-11.39,20.25s.21,17.22,6.44,26.64,25,25.78,25,25.78A30.88,30.88,0,0,0,176.41,251.12Z" style="fill:#90CAF9"></path><path d="M168.16,213.94c-9.71-13.33-6.63-26.89-2.41-32.31,1.24-1.59,2.53-3.13,3.78-4.62a85.74,85.74,0,0,0,9.72-13.39l-.84-.48a85.08,85.08,0,0,1-9.62,13.24c-1.26,1.5-2.56,3.05-3.81,4.65-4.4,5.64-7.63,19.72,2.4,33.48a134.07,134.07,0,0,0,13.48,15.15c5.64,5.69,10.09,10.19,9.47,13-.34,1.55-4.26,6.39-7.27,9.9l2-1.9-1.76,3.13c2.82-3.26,7.56-8.94,8-10.92.74-3.36-3.65-7.79-9.73-13.93A134.54,134.54,0,0,1,168.16,213.94Z" style="opacity:0.2"></path><path d="M188,193.82a8.24,8.24,0,0,0-3.2-.81,12.7,12.7,0,0,1,2.64,1.2,32.05,32.05,0,0,1,9.48,9.48l2.67-1.56S193.15,196,188,193.82Z" style="opacity:0.2"></path><path d="M193.23,320.64c-.09,1.16-.38,1.9-4.81,2.37s-10.6-1-15.52-3.5-8.36-8.11-9.79-11.83-5.41-8.42-8-10.69-3-3-2.57-3.94,1.88-3.24,1.88-3.24Z" style="fill:#ebebeb"></path><path d="M155.05,285.65c1.48-3,3.45-3.5,4.07-6.11a2.65,2.65,0,0,1,3-2.08L161,279.22a5.1,5.1,0,0,0,.6,2.39c.65,1.93.36,3.12,1.67,3.95s2.15-1.56,3.75-1.18a2.47,2.47,0,0,1,1.4,1.19,4.22,4.22,0,0,1,.37-2c.81-1.44,4.79-.8,7.68-.64s1.19,1.84,1.55,4.7,4.07,13,5.78,16.26a84.67,84.67,0,0,0,5.48,7.17c2.77,3.15,3.76,4.14,4.59,5s.52,3.16-.32,4.38-9.28,2.65-17-1.1-9.25-7.74-11.05-12.69a23.14,23.14,0,0,0-6.69-9.61,22.3,22.3,0,0,1-5-5.89A11.29,11.29,0,0,1,155.05,285.65Z" style="fill:#90CAF9"></path><path d="M155.05,285.65c1.48-3,3.45-3.5,4.07-6.11a2.65,2.65,0,0,1,3-2.08L161,279.22a5.1,5.1,0,0,0,.6,2.39c.65,1.93.36,3.12,1.67,3.95s2.15-1.56,3.75-1.18a2.47,2.47,0,0,1,1.4,1.19,4.22,4.22,0,0,1,.37-2c.81-1.44,4.79-.8,7.68-.64s1.19,1.84,1.55,4.7,4.07,13,5.78,16.26a84.67,84.67,0,0,0,5.48,7.17c2.77,3.15,3.76,4.14,4.59,5s.52,3.16-.32,4.38-9.28,2.65-17-1.1-9.25-7.74-11.05-12.69a23.14,23.14,0,0,0-6.69-9.61,22.3,22.3,0,0,1-5-5.89A11.29,11.29,0,0,1,155.05,285.65Z" style="opacity:0.2"></path><path d="M183.75,303.86c-1.71-3.26-5.42-13.4-5.78-16.26s1.34-4.53-1.55-4.7-6.87-.8-7.68.64-.35,5.41,1.59,10.61,6.72,11.16,6.72,11.16Z" style="opacity:0.2"></path><path d="M192.88,317.28c-1.56,0-3.26,0-3.45.55s-1,3.61-2,4.44a4.08,4.08,0,0,1-3.51.66c-1.44-.22-7.48-1.64-10.76-3.55a21,21,0,0,1-8.36-8.73c-2.26-4.26-2.42-6.1-5.86-9.78s-5.1-5.1-6.51-7.15a8.35,8.35,0,0,0-.64,1.2,5.28,5.28,0,0,0,1.5,2,61,61,0,0,1,6.79,6.89,56.47,56.47,0,0,1,4.07,7.58,21.39,21.39,0,0,0,8.79,8.86c4.34,2.22,10.63,3.91,15.12,3.47s4.9-1.23,5.37-1.63a9.52,9.52,0,0,0,1.23-4C194.56,317.33,194,317.26,192.88,317.28Z" style="fill:#263238"></path><path d="M176.05,303.77c3.45-1.32,6.16-1.45,7.22-.89a2.5,2.5,0,0,1,.81,1.45s-2.22-.62-7,1A1.48,1.48,0,0,1,176.05,303.77Z" style="fill:#fafafa"></path><path d="M181.74,299.26c-2.15-.5-5.06-.22-8.68.87a1.59,1.59,0,0,1-.92-1.52s5-2.08,9-.84C181.16,297.77,182,298.5,181.74,299.26Z" style="fill:#fafafa"></path><path d="M179.9,294.29c-1.65-1.09-7.42.11-9.3,1.15a1.32,1.32,0,0,1-.89-1.67s5.06-2.63,9.56-1.34C179.27,292.43,180.39,293.29,179.9,294.29Z" style="fill:#fafafa"></path><path d="M178.42,289.65c-.86-.38-6-1.43-9.61.52a1.6,1.6,0,0,1-.62-1.67,12.63,12.63,0,0,1,9.83-.58A2.46,2.46,0,0,1,178.42,289.65Z" style="fill:#fafafa"></path></g><path id="freepik--Arm--inject-52" d="M229.36,97.29c8.71.94,14.22,3.95,19.15,13.67,1.36,2.68,4,7.46,9.39,17,5.09,9.11,10.15,18.43,10.15,18.43s8.81,5.95,15.19,10.1,15.83,10.35,18.53,10.81,9.69,0,9.69,0L301,185.51c-3.1-1.3-2.54-2-7.43-4.61C288,178,265.25,169,261.28,167c-7.89-4-9.31-5.69-13.8-12.78-7.51-11.87-15.35-25.95-15.35-25.95Z" style="fill:#ffa8a7"></path><g id="freepik--Top--inject-52"><path d="M173.31,158.82c5-6.36,8-17.16,7.8-23.5s-3.11-22.54-.94-27.89,15.17-8.89,30.33-10.94,21.36,2.19,24.37,8,7.32,21.42,6.68,31.55-9.44,14.51-9.44,14.51l-8,10.83c-2.66,3.62-5.72,16.7-5.72,16.7s-4.06,5.49-20.31,3.54C176.58,179,173.31,158.82,173.31,158.82Z" style="fill:#ffa8a7"></path><path d="M210.5,96.49c-15.16,2.05-28.16,5.59-30.33,10.94s.69,21.55.94,27.89a31.26,31.26,0,0,1-.83,7.54h0c1.78,4.69,17.21,16.75,32.4,16.66,11.9-.07,15.73-4.13,16.48-5l.21-.28h0l2.73-3.72s10.38-4.78,12.1-16.79c1.44-10-4.35-21.72-7.66-27.35s-6.09-8.41-7.19-9.11A57,57,0,0,0,210.5,96.49Z" style="fill:#263238"></path><path d="M195,99.39a58,58,0,0,1,9.09,11.9c3.77,6.21,10.31,9.61,19.68,8.79,10.17-.9,7.32-7.15,5.11-12.71a41.15,41.15,0,0,0-6.29-11.1A98.09,98.09,0,0,0,195,99.39Z" style="fill:#ffa8a7"></path><path d="M224.59,148.77c-3.79,4.11-18.56,6.48-26.89-3.42C199,153.7,216.45,160,224.59,148.77Z"></path><path d="M171.09,161.44l5.82-8.61a32.71,32.71,0,0,0,6.73,11.1c9.94,10.58,22.83,11.5,28.89,10.16s7.75-3,7.75-3l-2.23,9.29s-3.39,3.44-10.38,3.77c-8.87.42-20.92-1.13-30-12.52A58.4,58.4,0,0,1,171.09,161.44Z" style="fill:#90CAF9"></path><path d="M171.09,161.44l5.82-8.61a32.71,32.71,0,0,0,6.73,11.1c9.94,10.58,22.83,11.5,28.89,10.16s7.75-3,7.75-3l-2.23,9.29s-3.39,3.44-10.38,3.77c-8.87.42-20.92-1.13-30-12.52A58.4,58.4,0,0,1,171.09,161.44Z" style="opacity:0.4"></path></g><g id="freepik--Head--inject-52"><path d="M244.8,62.33a33.46,33.46,0,0,1-3.26,10.8c-.65,1.22-31.83,12.25-37.48,14.57,0,0-3.82-9.55-7.06-14.68-4.86-7.69-5.06-19.27,4.22-23.36,0,0,2.08-9.34,11.38-12C228.5,33.19,248,41.54,244.8,62.33Z" style="fill:#263238"></path><path d="M215.84,48.23c3.2-3.43,3.72-9.38.7-13.11a9.09,9.09,0,0,0-6.84-3.31,6.59,6.59,0,0,0-2.92-4.67c-2.52-1.74-6.08-2-9-1.47a9.74,9.74,0,0,0-6,3.51,6.93,6.93,0,0,0-1,6.73,4.15,4.15,0,0,0-3.09,7.23,5.29,5.29,0,0,0,.9,8.86c-5.21.35-7.12,5.16-7.25,7.86-.18,3.62,1.67,7.36,5,8.85a12.53,12.53,0,0,1-2.88-5.32,7,7,0,0,1,1.09-5.81,5,5,0,0,1,5.43-1.77A2.92,2.92,0,0,0,187.7,58a4,4,0,0,0,1,3.57c1.22,1,2.15,1.45,5.29,1.24.8-.05.36.29,1.13.52a4.17,4.17,0,0,0,3.34-.66A14.85,14.85,0,0,0,201,60.32a53.74,53.74,0,0,1,8.86-7.56A33.67,33.67,0,0,0,215.84,48.23Z" style="fill:#263238"></path><path d="M241.83,53s4.56,5.77,1.06,23.19c-2.14,10.7-5.85,15.54-9.7,17.08-2.31.93-7.67.54-10.94-.33a11.87,11.87,0,0,0-.44,1.39c-.48,1.7.8,1.92.8,1.92s8,16.72-1.86,16.6c-4.95-.06-11.54-2.74-16-5.68a51.37,51.37,0,0,1-9.4-7.89c4-1,4-2.1,5-5.55,1.75-6.21,3.33-16.17,3.33-16.17s-3.06,2.84-6.43-.81c-3.8-4.12-3.57-10.94.3-13.18,4.72-2.74,7.76.54,8.83,3.86,1,3,3.75,3.48,5,0,1.75-4.95,2.14-14.3,6.84-15.23C224,51.08,229.42,63.89,241.83,53Z" style="fill:#ffa8a7"></path><path d="M241.4,52.25A12,12,0,0,1,251.21,67,12.06,12.06,0,0,0,239,54.53" style="fill:#263238"></path><path d="M203.43,69.61a2.44,2.44,0,0,1-1.13,2,2.52,2.52,0,0,1-1.25.4c-.26,0-.19.42,0,1.67l.12.79a.8.8,0,0,1-.58,1h0a.79.79,0,0,1-.95-.58l-1.09-4.58a2.59,2.59,0,0,1,1.82-3.16A2.49,2.49,0,0,1,203.43,69.61Z" style="fill:#fafafa"></path><path d="M211.79,72.5c-.17,1.77,1.76,3.4,4.3,3.64s4.74-1,4.9-2.79-1.76-3.41-4.3-3.64S212,70.72,211.79,72.5Z" style="fill:#f28f8f"></path><path d="M237.85,74.39c-.16,1.77,1.77,3.41,4.31,3.64s4.73-1,4.9-2.79-1.76-3.41-4.31-3.64S238,72.61,237.85,74.39Z" style="fill:#f28f8f"></path><path d="M223,79.6,229.26,82a3.3,3.3,0,0,1-4.3,2A3.51,3.51,0,0,1,223,79.6Z" style="fill:#874c4c"></path><path d="M224.44,62.43,219.6,64a2.45,2.45,0,0,1,1.54-3.2A2.68,2.68,0,0,1,224.44,62.43Z" style="fill:#263238"></path><path d="M237.38,63.24l4.11,3a2.44,2.44,0,0,0-.47-3.52A2.67,2.67,0,0,0,237.38,63.24Z" style="fill:#263238"></path><polygon points="230.17 66.1 229.38 77.58 236.22 76.31 230.17 66.1" style="fill:#f28f8f"></polygon><path d="M206.32,79.6s-1.11,6,2.28,9.58c4,4.23,10.51,5.82,13.18,6.31a1.94,1.94,0,0,1,0-1.14,11.87,11.87,0,0,1,.44-1.39h0c-2.85-.78-8.6-2.44-11.86-5.26A11.37,11.37,0,0,1,206.32,79.6Z" style="fill:#f28f8f"></path><path d="M235.51,68.63a2,2,0,0,0,1.54,2.3,1.87,1.87,0,0,0,2.26-1.47,2,2,0,0,0-1.54-2.3A1.86,1.86,0,0,0,235.51,68.63Z" style="fill:#263238"></path><path d="M221.27,67.64a2,2,0,0,0,1.54,2.3,1.86,1.86,0,0,0,2.26-1.47,2,2,0,0,0-1.54-2.3A1.87,1.87,0,0,0,221.27,67.64Z" style="fill:#263238"></path><path d="M222.85,81.46a4.15,4.15,0,0,1,.78.09,4.68,4.68,0,0,1,3.27,2.64,3.25,3.25,0,0,1-1.94-.13A3.45,3.45,0,0,1,222.85,81.46Z" style="fill:#f28f8f"></path></g></g><g id="freepik--Handlebar--inject-52"><path d="M268.39,237.78l-6.15-.83-5.68,3.28,14.88,68.82c2.66,2.65,5.23,5.29,7.68,7.92l5.68-3.28Z" style="fill:#263238"></path><polygon points="262.71 241.06 268.39 237.78 262.24 236.95 256.56 240.23 262.71 241.06" style="fill:#455a64"></polygon><path d="M256.56,240.23l14.88,68.82c2.66,2.65,5.23,5.29,7.68,7.92l-16.41-75.91Z" style="fill:#37474f"></path><polygon points="266.75 238.17 259.54 204.99 254.68 204.35 250.73 206.63 257.96 239.81 262.8 240.45 266.75 238.17" style="fill:#263238"></polygon><polygon points="250.73 206.63 257.96 239.81 262.8 240.45 255.59 207.27 250.73 206.63" style="fill:#37474f"></polygon><path d="M210.63,227.84a3.12,3.12,0,0,1-.52,0c-3.54-.61-4.4-2.6-4.61-3.74s-.07-3.3,3-5.09l59.21-34.21a18.52,18.52,0,0,1,11-2l20.6,3.54a1.39,1.39,0,0,0,1.64-.83L314.54,162a3,3,0,0,1,5.22,3l-13.54,23.48a7.38,7.38,0,0,1-7.89,3.76l-20.59-3.54a12.66,12.66,0,0,0-7,1.24l-57.57,33.26a3,3,0,0,1-2.56,4.6Zm.49-3.36Z" style="fill:#37474f"></path><polygon points="275.92 166.71 252.23 180.38 240.39 214.57 244.34 216.85 268.02 203.17 279.87 168.99 275.92 166.71" style="fill:#455a64"></polygon><polygon points="244.34 216.85 256.18 182.66 279.87 168.99 268.02 203.17 244.34 216.85" style="fill:#263238"></polygon><polygon points="252.23 180.38 256.18 182.66 244.34 216.85 240.39 214.57 252.23 180.38" style="fill:#37474f"></polygon><path d="M232.1,231.46a8.24,8.24,0,0,1-1.39-.12l-20.6-3.54a3,3,0,0,1,1-5.94l20.6,3.54a1.39,1.39,0,0,0,1.64-.83l13.54-23.47a3,3,0,1,1,5.22,3L238.6,227.58A7.39,7.39,0,0,1,232.1,231.46Z" style="fill:#37474f"></path></g><g id="freepik--arm--inject-52"><path d="M217.45,213.52a107.57,107.57,0,0,0,9.85,10c1.77,1.5,8.26,3.15,10.14,3.15,2,0,5.16-2.13,7.81-4.42a5,5,0,0,0,3.38-3.21,3.36,3.36,0,0,0,2.15-.71c2.06-2.06,1.09-5.5-.56-10.94l-2.29,4c-.46.8-2.52.92-3.86,0a4.9,4.9,0,0,1-1.8-2.24l2.86-4.95c-3.27-.56-4-1.26-6.81-1.57-3.13-.35-5.76.26-8.25-1.26s-5.66-5.29-9.79-9.74c-9.72-10.5-18.6-22.1-18.6-22.1l-7.47-37.88s-.39-24.28-7.87-29.31c-5.12,1.15-16.05,5.46-17.58,15.62-1.32,8.78,2.24,15.61,3.1,19.67s3.59,15.93,6.53,31c1.65,8.48,2.72,12.25,11.43,19.8C197.9,195.45,214.5,210.19,217.45,213.52Z" style="fill:#ffa8a7"></path><path d="M220.28,191.62c-3.38-3.42-6.7-7.09-9.91-10.68s-6-7.44-9.05-11.13l-.07-.09,0-.11c-.64-3.15-1.27-6.31-1.86-9.47l-1.82-9.48c-1.15-6.33-2.31-12.66-3.33-19,1.47,6.27,2.8,12.56,4.14,18.86l1.91,9.46q1,4.72,1.87,9.47l-.1-.2c3,3.71,5.95,7.72,9,11.41Z" style="fill:#f28f8f"></path><path d="M242.09,222l-3.34-.44,0,.07c1.08.35,2.16.65,3.25.93l2.31.54.9-.75C244.15,222.28,243.12,222.15,242.09,222Z" style="fill:#f28f8f"></path><path d="M241.71,224.66a11,11,0,0,1-2.7-.14l-3.3-.52v.07c1.07.35,2.16.65,3.25.93l2,.46c.52-.3,1-.65,1.58-1A2.06,2.06,0,0,1,241.71,224.66Z" style="fill:#f28f8f"></path><path d="M248.63,219.08h0a32.42,32.42,0,0,1-3.24-.36l-3.34-.44,0,.07c1.08.34,2.16.65,3.25.93l2.9.67A8.88,8.88,0,0,0,248.63,219.08Z" style="fill:#f28f8f"></path><path d="M237,205.56a12,12,0,0,1,5.26,3.58L243,208S240.08,205.27,237,205.56Z" style="fill:#f28f8f"></path></g><g id="freepik--Hand--inject-52"><path d="M317.71,168.6c.86,1.17,4.14,5,4.29,7s-2.15,3.32-2.15,3.32.95,3.77-2.14,4.93c0,0,.34,2.39-2.81,3.23-.76,2.22-1.31,2.18-4,2.33s-3.36.34-4.64-.93a8.58,8.58,0,0,1-2.22-5.68c.09-1.88,1.67-3.6,2.52-2.46-.45-3.66.25-8.46,6.08-9.1,1.18-.13,1.78,3.09,1.78,3.09Z" style="fill:#f28f8f"></path><path d="M297.9,165.66c2.84,1.38,6.58,1,10.25,1.05s5,1.17,5.9,3.95-1.45,7.22-1.45,9.72-3.48,1.64-4.45-1a14.63,14.63,0,0,1-1-4.56Z" style="fill:#ffa8a7"></path></g></g></g><g id="freepik--speech-bubble--inject-52"><g id="freepik--speech-bubble--inject-52"><g id="freepik--speech-bubble--inject-52"><path d="M299.55,95.34c1.46,3.6,1.38,13.85-4.06,18.76l5,2.91a18.34,18.34,0,0,0,5.07-4.09c5.29-7.37,6.77-15.09,4.55-23.66Z" style="fill:#e0e0e0"></path><path d="M334.93,19.77,280.21,51.36a2.37,2.37,0,0,0-1.07,1.86v63.17c0,.68.48,1,1.07.62l25.63-14.8c.08,3.8-1.61,11.45-5.32,14.8,8.66-2.93,13-12.58,14.23-19.94l20.18-11.65A2.4,2.4,0,0,0,336,83.56V20.39C336,19.71,335.52,19.43,334.93,19.77Z" style="fill:#fafafa"></path><path d="M335,20.89V83.56a1.39,1.39,0,0,1-.57,1L314.25,96.2l-.41.24-.08.46c-1.09,6.26-4.24,13.57-9.94,17.37a27.82,27.82,0,0,0,3-12.08l0-1.69-1.46.85-25.2,14.54V53.22a1.39,1.39,0,0,1,.57-1L335,20.89m.41-1.27a1,1,0,0,0-.48.15L280.21,51.36a2.37,2.37,0,0,0-1.07,1.86v63.17c0,.49.24.77.59.77a1,1,0,0,0,.48-.15l25.63-14.8c.08,3.8-1.61,11.45-5.32,14.8,8.66-2.93,13-12.58,14.23-19.94l20.18-11.65A2.4,2.4,0,0,0,336,83.56V20.39c0-.49-.24-.77-.59-.77Z" style="fill:#90CAF9"></path><g style="opacity:0.5"><path d="M335,20.89V83.56a1.39,1.39,0,0,1-.57,1L314.25,96.2l-.41.24-.08.46c-1.09,6.26-4.24,13.57-9.94,17.37a27.82,27.82,0,0,0,3-12.08l0-1.69-1.46.85-25.2,14.54V53.22a1.39,1.39,0,0,1,.57-1L335,20.89m.41-1.27a1,1,0,0,0-.48.15L280.21,51.36a2.37,2.37,0,0,0-1.07,1.86v63.17c0,.49.24.77.59.77a1,1,0,0,0,.48-.15l25.63-14.8c.08,3.8-1.61,11.45-5.32,14.8,8.66-2.93,13-12.58,14.23-19.94l20.18-11.65A2.4,2.4,0,0,0,336,83.56V20.39c0-.49-.24-.77-.59-.77Z" style="fill:#90CAF9"></path><path d="M298.39,118.26l1.79-1.62c3.22-2.91,5-9.5,5.15-13.56l-24.87,14.36a1.16,1.16,0,0,1-1.82-1V53.22A2.88,2.88,0,0,1,280,50.93l54.72-31.59a1.16,1.16,0,0,1,1.82,1.05V83.56a2.88,2.88,0,0,1-1.32,2.29l-20,11.54c-1.42,7.86-6,17.2-14.52,20.09Zm5-15.21L279.9,116.61l.06,0Zm31.86-82.88-.06,0L280.46,51.8a1.85,1.85,0,0,0-.82,1.42v0a1.85,1.85,0,0,1,.82-1.42Zm-32.06,94.24c-.26.45-.55.89-.84,1.3l.18-.1ZM334.5,21.75,281,52.66a1,1,0,0,0-.32.56V115l26.64-15.38.06,2.53a29.16,29.16,0,0,1-2.18,10.44c4-3.46,7-9.2,8.11-15.81l.12-.69,20.79-12a1,1,0,0,0,.32-.56Zm-23.92,85.67a21.75,21.75,0,0,1-5.87,6.84A21.54,21.54,0,0,0,310.58,107.42Zm-4.26-6.06,0,.84v0Zm8-4.61,7.91-4.56Z" style="fill:#fff"></path></g><path d="M280.21,117a2.5,2.5,0,0,1-2.17,0l-3.81-2.18a2.31,2.31,0,0,1-1.08-1.84V49.85a2.2,2.2,0,0,1,.34-1.09l6,3.4a2.26,2.26,0,0,0-.31,1.06v63.17C279.14,117,279.58,117.37,280.21,117Z" style="fill:#e0e0e0"></path><path d="M336,20.19c-.09-.54-.53-.73-1.06-.42L280.21,51.36a2.44,2.44,0,0,0-.76.8l-6-3.4a2.14,2.14,0,0,1,.73-.76l54.72-31.6a2.43,2.43,0,0,1,2.15,0l3.83,2.15A2.41,2.41,0,0,1,336,20.19Z" style="fill:#f0f0f0"></path></g><path d="M291.47,71.06a.25.25,0,0,1-.31,0,.58.58,0,0,1-.13-.4v-3l-5,2.87a.22.22,0,0,1-.3,0,.5.5,0,0,1-.13-.39V68.35a2.39,2.39,0,0,1,.1-.66c.07-.21.16-.45.25-.7l4.91-12.26a2,2,0,0,1,.66-1l1.21-.7a.24.24,0,0,1,.31,0,.56.56,0,0,1,.13.4v9.87l1.38-.8a.23.23,0,0,1,.3,0,.54.54,0,0,1,.13.39v1.75a1.38,1.38,0,0,1-.13.55.9.9,0,0,1-.3.37l-1.38.8v3a1.34,1.34,0,0,1-.13.54.82.82,0,0,1-.31.38ZM291,64.57V59.29l-2.74,6.86Z" style="fill:#455a64"></path><path d="M297.11,51.19a1.19,1.19,0,0,1,.13-.54.8.8,0,0,1,.3-.38l6-3.48a.24.24,0,0,1,.3,0,.54.54,0,0,1,.13.4V49a1.26,1.26,0,0,1-.13.55.77.77,0,0,1-.3.37l-4.51,2.6-.17,3.26a4.34,4.34,0,0,1,.86-.82l.69-.45a4.32,4.32,0,0,1,1.67-.59,1.88,1.88,0,0,1,1.33.33,2.66,2.66,0,0,1,.88,1.28,6.53,6.53,0,0,1,.32,2.26,11.83,11.83,0,0,1-.33,2.89,10.51,10.51,0,0,1-.89,2.37,7.93,7.93,0,0,1-1.34,1.83,7.76,7.76,0,0,1-1.64,1.28,4.6,4.6,0,0,1-1.9.7,1.87,1.87,0,0,1-1.31-.31,2.29,2.29,0,0,1-.79-1.1,5.54,5.54,0,0,1-.29-1.67,1,1,0,0,1,.12-.55.84.84,0,0,1,.31-.37l1.3-.75a.26.26,0,0,1,.29,0,.52.52,0,0,1,.17.33,1.64,1.64,0,0,0,.31.75.87.87,0,0,0,.48.29,1.23,1.23,0,0,0,.61-.07,4.37,4.37,0,0,0,.7-.33,3.84,3.84,0,0,0,1.48-1.62,5.26,5.26,0,0,0,.56-2.42,1.81,1.81,0,0,0-.56-1.53,1.31,1.31,0,0,0-1.48.09,3.84,3.84,0,0,0-.76.55,3.5,3.5,0,0,0-.46.52c-.11.17-.22.32-.32.45a1.4,1.4,0,0,1-.36.32l-1.48.85a.23.23,0,0,1-.3,0,.51.51,0,0,1-.13-.4Z" style="fill:#455a64"></path><path d="M308.23,49a.24.24,0,0,1,.31,0,.54.54,0,0,1,.13.39v2.42a1.34,1.34,0,0,1-.13.54.82.82,0,0,1-.31.38l-1.49.86a.23.23,0,0,1-.3,0,.52.52,0,0,1-.13-.4V50.76a1.19,1.19,0,0,1,.13-.54.77.77,0,0,1,.3-.37Zm0,8.64a.23.23,0,0,1,.31,0,.54.54,0,0,1,.13.39v2.42a1.34,1.34,0,0,1-.13.54.87.87,0,0,1-.31.38l-1.49.86a.23.23,0,0,1-.3,0,.54.54,0,0,1-.13-.4V59.4a1.19,1.19,0,0,1,.13-.54.72.72,0,0,1,.3-.37Z" style="fill:#455a64"></path><path d="M319.21,44.2c0,.31,0,.65,0,1v2.32c0,.38,0,.73,0,1.05a19.52,19.52,0,0,1-.28,2.81A11.73,11.73,0,0,1,318.2,54a8.63,8.63,0,0,1-1.32,2.16,7.26,7.26,0,0,1-2,1.65,3.86,3.86,0,0,1-2,.65,1.73,1.73,0,0,1-1.3-.66,3.78,3.78,0,0,1-.74-1.69,13.8,13.8,0,0,1-.28-2.49c0-.62,0-1.32,0-2.12s0-1.52,0-2.15a20.09,20.09,0,0,1,.28-2.84,11.25,11.25,0,0,1,.74-2.59,9,9,0,0,1,1.3-2.2,7.25,7.25,0,0,1,2-1.68,3.75,3.75,0,0,1,2-.63,1.75,1.75,0,0,1,1.32.64,4,4,0,0,1,.73,1.7A13.8,13.8,0,0,1,319.21,44.2Zm-6.46,8a5,5,0,0,0,.56,2.43q.46.7,1.59.06a3.62,3.62,0,0,0,1.6-1.9,10,10,0,0,0,.55-3.07c0-.64,0-1.33,0-2.09s0-1.44,0-2.05a5.05,5.05,0,0,0-.55-2.44c-.32-.47-.85-.48-1.6,0A3.53,3.53,0,0,0,313.31,45a10.09,10.09,0,0,0-.56,3.08c0,.63,0,1.33,0,2.09S312.73,51.59,312.75,52.2Z" style="fill:#455a64"></path><path d="M320.83,48.25a10.44,10.44,0,0,1,.34-2.61c.21-.78.46-1.56.74-2.33l3-8.37c0-.12.1-.26.17-.42a.82.82,0,0,1,.33-.36l1.44-.83a.24.24,0,0,1,.31,0,.54.54,0,0,1,.12.39.72.72,0,0,1,0,.22.39.39,0,0,1-.06.15l-2,5.54a3.88,3.88,0,0,1,1.74-.53,2.06,2.06,0,0,1,1.36.44,3,3,0,0,1,.88,1.4,7.09,7.09,0,0,1,.31,2.26,11.41,11.41,0,0,1-1.22,5.11,9.71,9.71,0,0,1-1.37,2,7.32,7.32,0,0,1-1.77,1.46,3.87,3.87,0,0,1-1.76.58,2.07,2.07,0,0,1-1.38-.45,3.19,3.19,0,0,1-.9-1.41A7.29,7.29,0,0,1,320.83,48.25Zm6.54-3.77a2.32,2.32,0,0,0-.57-1.78c-.38-.35-.91-.33-1.61.07a4.08,4.08,0,0,0-1.61,1.79A5.52,5.52,0,0,0,323,47a2.42,2.42,0,0,0,.57,1.81c.38.37.92.35,1.61,0a4,4,0,0,0,1.61-1.81A5.67,5.67,0,0,0,327.37,44.48Z" style="fill:#455a64"></path><path d="M304.63,73.8h0l0,0c-1-.86-2.71-.77-4.26,0-2.12,1.07-3.86,3.38-5.17,7.29-1.3-2.4-3.05-2.47-5.16-1.1a9.85,9.85,0,0,0-3.57,4.29l0,0h0a12.86,12.86,0,0,0-1.33,5.39c0,4.14,1.7,6.12,3.9,7.6a13.78,13.78,0,0,0,4.36,1.9l2.17.51,2.18-3a68.81,68.81,0,0,0,4.35-6.93c2.21-4,3.92-8,3.9-12.11A5.1,5.1,0,0,0,304.63,73.8Z" style="fill:#90CAF9"></path><path d="M304.4,84.93l-4.24,2.45-1.56-5.72a.42.42,0,0,0-.4-.3.41.41,0,0,0-.38.32l-2.46,11.19-2.06-5.64a.4.4,0,0,0-.39-.26.4.4,0,0,0-.37.29l-1.4,4.95-4.66,2.69c.16.23.33.44.5.64l4.71-2.72a.38.38,0,0,0,.18-.23l1.1-3.91,2.11,5.77a.4.4,0,0,0,.77,0l2.4-11,1.27,4.65a.38.38,0,0,0,.23.26.41.41,0,0,0,.36,0l3.75-2.17C304.05,85.76,304.23,85.35,304.4,84.93Z" style="fill:#fff"></path><path d="M312.41,67.27l14.09-8.13c.6-.35,1.08-.1,1.08.54a2.31,2.31,0,0,1-1.08,1.8l-14.09,8.13c-.59.35-1.08.1-1.08-.54A2.33,2.33,0,0,1,312.41,67.27Z" style="fill:#e0e0e0"></path><path d="M309.47,73.74a.25.25,0,0,1-.12-.47l20.31-11.73a.25.25,0,0,1,.34.09.26.26,0,0,1-.09.35L309.6,73.7A.2.2,0,0,1,309.47,73.74Z" style="fill:#e0e0e0"></path><path d="M309.47,76.08a.24.24,0,0,1-.21-.12.26.26,0,0,1,.09-.35l20.31-11.72a.25.25,0,1,1,.25.43L309.6,76.05A.28.28,0,0,1,309.47,76.08Z" style="fill:#e0e0e0"></path><g id="freepik--Chart--inject-52"><g style="opacity:0.15"><path d="M309.89,93a.48.48,0,0,1-.24-.06.59.59,0,0,1-.26-.55V79a1.61,1.61,0,0,1,.74-1.29L329,66.75a.59.59,0,0,1,.61,0,.6.6,0,0,1,.26.55V80.68a1.61,1.61,0,0,1-.75,1.29l-18.9,10.92A.82.82,0,0,1,309.89,93Zm19.52-26.11a.52.52,0,0,0-.25.08L310.25,77.88a1.42,1.42,0,0,0-.61,1.08V92.39a.38.38,0,0,0,.13.33.35.35,0,0,0,.36,0L329,81.76a1.4,1.4,0,0,0,.62-1.08V67.25a.36.36,0,0,0-.14-.33A.2.2,0,0,0,329.41,66.89Z"></path></g><path d="M328.65,75.76l-1-1c-.39-.37-1-.19-1.47.47l0,0c-.52.7-1.15.86-1.53.4l-.45-.55c-.46-.55-1.27-.18-1.8.83l-.39.73c-.39.73-.94,1.16-1.4,1.07h0c-.53-.1-1.18.49-1.55,1.42l-.61,1.48c-.34.83-.9,1.4-1.41,1.42l-.54,0a1.35,1.35,0,0,0-.92.58l-.58.72c-.56.7-1.21.78-1.56.21l0,0c-.5-.84-1.59-.22-2.1,1.2l-.64,1.78V90l18.06-10.43Z" style="fill:#90CAF9;opacity:0.30000000000000004"></path><path d="M310.59,86.6h0s-.06-.06,0-.09l.63-1.78c.33-.92.93-1.57,1.5-1.62a.72.72,0,0,1,.73.41l0,0a.67.67,0,0,0,.51.35,1.26,1.26,0,0,0,.94-.56l.58-.72a1.39,1.39,0,0,1,1-.61l.54,0c.48,0,1-.57,1.35-1.38l.6-1.48c.39-1,1.06-1.56,1.64-1.46.42.08.95-.32,1.32-1l.39-.73a1.85,1.85,0,0,1,1.26-1.12.71.71,0,0,1,.65.28l.45.55a.61.61,0,0,0,.47.23h0a1.38,1.38,0,0,0,.95-.63l0,0a1.52,1.52,0,0,1,1-.69.75.75,0,0,1,.57.21l1.05,1a.07.07,0,0,1,0,.1.06.06,0,0,1-.09,0l-1.06-1a.57.57,0,0,0-.46-.17,1.39,1.39,0,0,0-.9.63l0,0a1.47,1.47,0,0,1-1.05.69.72.72,0,0,1-.59-.29l-.45-.54a.59.59,0,0,0-.54-.23,1.75,1.75,0,0,0-1.15,1l-.39.73c-.4.76-1,1.2-1.47,1.11s-1.12.49-1.48,1.37l-.6,1.48c-.36.87-.93,1.45-1.47,1.47l-.54,0a1.28,1.28,0,0,0-.88.56l-.57.71a1.33,1.33,0,0,1-1.06.61.77.77,0,0,1-.62-.41l0,0a.63.63,0,0,0-.61-.35c-.51.05-1.06.67-1.38,1.54l-.63,1.78A.08.08,0,0,1,310.59,86.6Z" style="fill:#455a64"></path><path d="M327,80.66a.07.07,0,0,1-.07-.07v-.41a.08.08,0,0,1,.07-.07s.06,0,.06.07v.41A.07.07,0,0,1,327,80.66Zm0-.82a.07.07,0,0,1-.07-.07v-.41a.07.07,0,0,1,.07-.07.07.07,0,0,1,.06.07v.41A.07.07,0,0,1,327,79.84Zm0-.82a.07.07,0,0,1-.07-.07v-.41a.07.07,0,0,1,.07-.07.07.07,0,0,1,.06.07V79A.07.07,0,0,1,327,79Zm0-.82a.07.07,0,0,1-.07-.07v-.41a.07.07,0,0,1,.07-.07.07.07,0,0,1,.06.07v.41A.07.07,0,0,1,327,78.2Zm0-.83a.07.07,0,0,1-.07-.06v-.42a.07.07,0,0,1,.07-.06.06.06,0,0,1,.06.06v.42A.06.06,0,0,1,327,77.37Zm0-.82a.07.07,0,0,1-.07-.07v-.41A.07.07,0,0,1,327,76a.07.07,0,0,1,.06.07v.41A.07.07,0,0,1,327,76.55Zm0-.82a.07.07,0,0,1-.07-.07v-.41a.07.07,0,0,1,.07-.07.07.07,0,0,1,.06.07v.41A.07.07,0,0,1,327,75.73Zm0-.82a.07.07,0,0,1-.07-.07v-.25a.07.07,0,0,1,.07-.07.07.07,0,0,1,.06.07v.25A.07.07,0,0,1,327,74.91Z" style="fill:#90CAF9"></path><path d="M319.62,84.9a.07.07,0,0,1-.07-.07v-.41a.07.07,0,0,1,.14,0v.41A.07.07,0,0,1,319.62,84.9Zm0-.83a.07.07,0,0,1-.07-.06v-.42a.07.07,0,0,1,.14,0V84A.07.07,0,0,1,319.62,84.07Zm0-.82a.07.07,0,0,1-.07-.07v-.41a.07.07,0,1,1,.14,0v.41A.07.07,0,0,1,319.62,83.25Zm0-.82a.07.07,0,0,1-.07-.07V82a.07.07,0,0,1,.14,0v.41A.07.07,0,0,1,319.62,82.43Zm0-.82a.07.07,0,0,1-.07-.07v-.41a.07.07,0,1,1,.14,0v.41A.07.07,0,0,1,319.62,81.61Zm0-.82a.08.08,0,0,1-.07-.07v-.41a.07.07,0,0,1,.14,0v.41A.08.08,0,0,1,319.62,80.79Zm0-.83a.07.07,0,0,1-.07-.06v-.42a.07.07,0,0,1,.14,0v.42A.07.07,0,0,1,319.62,80Zm0-.82a.07.07,0,0,1-.07-.07v-.41a.07.07,0,1,1,.14,0v.41A.07.07,0,0,1,319.62,79.14Zm0-.82a.07.07,0,0,1-.07-.07v-.11a.07.07,0,0,1,.14,0v.11A.07.07,0,0,1,319.62,78.32Z" style="fill:#90CAF9"></path><path d="M316,87a.07.07,0,0,1-.07-.07v-.41a.07.07,0,0,1,.07-.06.06.06,0,0,1,.06.06v.41A.07.07,0,0,1,316,87Zm0-.82a.07.07,0,0,1-.07-.07v-.41a.07.07,0,0,1,.07-.07.07.07,0,0,1,.06.07v.41A.07.07,0,0,1,316,86.19Zm0-.82a.07.07,0,0,1-.07-.07v-.41a.07.07,0,0,1,.07-.07.07.07,0,0,1,.06.07v.41A.07.07,0,0,1,316,85.37Zm0-.82a.07.07,0,0,1-.07-.07v-.41A.07.07,0,0,1,316,84a.07.07,0,0,1,.06.07v.41A.07.07,0,0,1,316,84.55Zm0-.83a.07.07,0,0,1-.07-.06v-.41a.07.07,0,0,1,.07-.07.07.07,0,0,1,.06.07v.41A.06.06,0,0,1,316,83.72Zm0-.82a.07.07,0,0,1-.07-.07v-.41a.08.08,0,0,1,.07-.07s.06,0,.06.07v.41A.07.07,0,0,1,316,82.9Z" style="fill:#90CAF9"></path><path d="M312.29,89.13a.07.07,0,0,1-.07-.07v-.41a.07.07,0,0,1,.14,0v.41A.07.07,0,0,1,312.29,89.13Zm0-.82a.07.07,0,0,1-.07-.07v-.41a.07.07,0,0,1,.14,0v.41A.07.07,0,0,1,312.29,88.31Zm0-.82a.07.07,0,0,1-.07-.07V87a.07.07,0,0,1,.14,0v.41A.07.07,0,0,1,312.29,87.49Zm0-.83a.07.07,0,0,1-.07-.06v-.42a.07.07,0,0,1,.14,0v.42A.07.07,0,0,1,312.29,86.66Zm0-.82a.07.07,0,0,1-.07-.07v-.41a.07.07,0,0,1,.14,0v.41A.07.07,0,0,1,312.29,85.84Zm0-.82a.07.07,0,0,1-.07-.07v-.41a.07.07,0,0,1,.14,0V85A.07.07,0,0,1,312.29,85Zm0-.82a.07.07,0,0,1-.07-.07v-.41a.07.07,0,0,1,.14,0v.41A.07.07,0,0,1,312.29,84.2Zm0-.83a.07.07,0,0,1-.07-.06h0a.07.07,0,1,1,.07.07Z" style="fill:#90CAF9"></path><path d="M323.29,82.78a.07.07,0,0,1-.07-.07V82.3a.07.07,0,0,1,.14,0v.41A.07.07,0,0,1,323.29,82.78Zm0-.82a.07.07,0,0,1-.07-.07v-.41a.07.07,0,0,1,.14,0v.41A.07.07,0,0,1,323.29,82Zm0-.82a.08.08,0,0,1-.07-.07v-.41a.07.07,0,0,1,.14,0v.41A.08.08,0,0,1,323.29,81.14Zm0-.83a.07.07,0,0,1-.07-.07v-.41a.07.07,0,0,1,.14,0v.41A.07.07,0,0,1,323.29,80.31Zm0-.82a.07.07,0,0,1-.07-.07V79a.07.07,0,0,1,.14,0v.41A.07.07,0,0,1,323.29,79.49Zm0-.82a.07.07,0,0,1-.07-.07v-.41a.07.07,0,0,1,.14,0v.41A.07.07,0,0,1,323.29,78.67Zm0-.82a.07.07,0,0,1-.07-.07v-.41a.07.07,0,0,1,.14,0v.41A.07.07,0,0,1,323.29,77.85Zm0-.83a.07.07,0,0,1-.07-.06v-.42a.07.07,0,0,1,.14,0V77A.07.07,0,0,1,323.29,77Zm0-.82a.07.07,0,0,1-.07-.07v-.41a.07.07,0,0,1,.14,0v.41A.07.07,0,0,1,323.29,76.2Zm0-.82a.07.07,0,0,1-.07-.07v-.4a.07.07,0,0,1,.14,0v.4A.07.07,0,0,1,323.29,75.38Z" style="fill:#90CAF9"></path><path d="M327.12,74.49c0-.14-.07-.21-.16-.16a.41.41,0,0,0-.17.35c0,.14.07.21.17.16A.43.43,0,0,0,327.12,74.49Z" style="fill:#e0e0e0"></path><path d="M323.45,74.81c0-.14-.07-.21-.16-.16a.44.44,0,0,0-.17.35c0,.14.08.22.17.16A.43.43,0,0,0,323.45,74.81Z" style="fill:#e0e0e0"></path><path d="M319.79,78c0-.14-.08-.21-.17-.16a.43.43,0,0,0-.16.35c0,.14.07.22.16.16A.44.44,0,0,0,319.79,78Z" style="fill:#e0e0e0"></path><path d="M316.12,82.16c0-.14-.07-.22-.16-.16a.41.41,0,0,0-.17.35c0,.14.07.21.17.16A.45.45,0,0,0,316.12,82.16Z" style="fill:#e0e0e0"></path><path d="M312.45,83.2c0-.14-.07-.21-.16-.16a.48.48,0,0,0-.17.36c0,.14.08.21.17.16A.45.45,0,0,0,312.45,83.2Z" style="fill:#e0e0e0"></path></g></g></g></svg>